<mxfile host="app.diagrams.net" modified="2023-12-31T10:01:58.626Z" agent="Mozilla/5.0 (Windows NT 10.0; Win64; x64) AppleWebKit/537.36 (KHTML, like Gecko) Chrome/120.0.0.0 Safari/537.36" etag="X82F_GsXIIHwc2PlQLwk" version="22.1.16" type="device">
  <diagram name="Page-1" id="e7e014a7-5840-1c2e-5031-d8a46d1fe8dd">
    <mxGraphModel dx="1050" dy="522" grid="1" gridSize="10" guides="1" tooltips="1" connect="1" arrows="1" fold="1" page="1" pageScale="1" pageWidth="1169" pageHeight="826" background="none" math="0" shadow="0">
      <root>
        <mxCell id="0" />
        <mxCell id="1" parent="0" />
        <mxCell id="fQ-RKaf4CLcPT8I7lYW2-42" value="Restaurant" style="swimlane;fontStyle=1;align=center;verticalAlign=top;childLayout=stackLayout;horizontal=1;startSize=26;horizontalStack=0;resizeParent=1;resizeParentMax=0;resizeLast=0;collapsible=1;marginBottom=0;whiteSpace=wrap;html=1;" vertex="1" parent="1">
          <mxGeometry x="450" y="80" width="150" height="174" as="geometry" />
        </mxCell>
        <mxCell id="fQ-RKaf4CLcPT8I7lYW2-43" value="id&amp;nbsp; long" style="text;strokeColor=none;fillColor=none;align=left;verticalAlign=top;spacingLeft=4;spacingRight=4;overflow=hidden;rotatable=0;points=[[0,0.5],[1,0.5]];portConstraint=eastwest;whiteSpace=wrap;html=1;" vertex="1" parent="fQ-RKaf4CLcPT8I7lYW2-42">
          <mxGeometry y="26" width="150" height="34" as="geometry" />
        </mxCell>
        <mxCell id="fQ-RKaf4CLcPT8I7lYW2-44" value="" style="line;strokeWidth=1;fillColor=none;align=left;verticalAlign=middle;spacingTop=-1;spacingLeft=3;spacingRight=3;rotatable=0;labelPosition=right;points=[];portConstraint=eastwest;strokeColor=inherit;" vertex="1" parent="fQ-RKaf4CLcPT8I7lYW2-42">
          <mxGeometry y="60" width="150" height="8" as="geometry" />
        </mxCell>
        <mxCell id="fQ-RKaf4CLcPT8I7lYW2-45" value="name varchar(100)" style="text;strokeColor=none;fillColor=none;align=left;verticalAlign=top;spacingLeft=4;spacingRight=4;overflow=hidden;rotatable=0;points=[[0,0.5],[1,0.5]];portConstraint=eastwest;whiteSpace=wrap;html=1;" vertex="1" parent="fQ-RKaf4CLcPT8I7lYW2-42">
          <mxGeometry y="68" width="150" height="30" as="geometry" />
        </mxCell>
        <mxCell id="fQ-RKaf4CLcPT8I7lYW2-75" value="" style="line;strokeWidth=1;fillColor=none;align=left;verticalAlign=middle;spacingTop=-1;spacingLeft=3;spacingRight=3;rotatable=0;labelPosition=right;points=[];portConstraint=eastwest;strokeColor=inherit;" vertex="1" parent="fQ-RKaf4CLcPT8I7lYW2-42">
          <mxGeometry y="98" width="150" height="8" as="geometry" />
        </mxCell>
        <mxCell id="fQ-RKaf4CLcPT8I7lYW2-73" value="isActive bit" style="text;strokeColor=none;fillColor=none;align=left;verticalAlign=top;spacingLeft=4;spacingRight=4;overflow=hidden;rotatable=0;points=[[0,0.5],[1,0.5]];portConstraint=eastwest;whiteSpace=wrap;html=1;" vertex="1" parent="fQ-RKaf4CLcPT8I7lYW2-42">
          <mxGeometry y="106" width="150" height="30" as="geometry" />
        </mxCell>
        <mxCell id="fQ-RKaf4CLcPT8I7lYW2-76" value="" style="line;strokeWidth=1;fillColor=none;align=left;verticalAlign=middle;spacingTop=-1;spacingLeft=3;spacingRight=3;rotatable=0;labelPosition=right;points=[];portConstraint=eastwest;strokeColor=inherit;" vertex="1" parent="fQ-RKaf4CLcPT8I7lYW2-42">
          <mxGeometry y="136" width="150" height="8" as="geometry" />
        </mxCell>
        <mxCell id="fQ-RKaf4CLcPT8I7lYW2-74" value="status bit" style="text;strokeColor=none;fillColor=none;align=left;verticalAlign=top;spacingLeft=4;spacingRight=4;overflow=hidden;rotatable=0;points=[[0,0.5],[1,0.5]];portConstraint=eastwest;whiteSpace=wrap;html=1;" vertex="1" parent="fQ-RKaf4CLcPT8I7lYW2-42">
          <mxGeometry y="144" width="150" height="30" as="geometry" />
        </mxCell>
        <mxCell id="fQ-RKaf4CLcPT8I7lYW2-52" value="address" style="swimlane;fontStyle=1;align=center;verticalAlign=top;childLayout=stackLayout;horizontal=1;startSize=26;horizontalStack=0;resizeParent=1;resizeParentMax=0;resizeLast=0;collapsible=1;marginBottom=0;whiteSpace=wrap;html=1;" vertex="1" parent="1">
          <mxGeometry x="120" y="80" width="160" height="242" as="geometry" />
        </mxCell>
        <mxCell id="fQ-RKaf4CLcPT8I7lYW2-53" value="id long" style="text;strokeColor=none;fillColor=none;align=left;verticalAlign=top;spacingLeft=4;spacingRight=4;overflow=hidden;rotatable=0;points=[[0,0.5],[1,0.5]];portConstraint=eastwest;whiteSpace=wrap;html=1;" vertex="1" parent="fQ-RKaf4CLcPT8I7lYW2-52">
          <mxGeometry y="26" width="160" height="26" as="geometry" />
        </mxCell>
        <mxCell id="fQ-RKaf4CLcPT8I7lYW2-54" value="" style="line;strokeWidth=1;fillColor=none;align=left;verticalAlign=middle;spacingTop=-1;spacingLeft=3;spacingRight=3;rotatable=0;labelPosition=right;points=[];portConstraint=eastwest;strokeColor=inherit;" vertex="1" parent="fQ-RKaf4CLcPT8I7lYW2-52">
          <mxGeometry y="52" width="160" height="8" as="geometry" />
        </mxCell>
        <mxCell id="fQ-RKaf4CLcPT8I7lYW2-63" value="addressType int" style="text;strokeColor=none;fillColor=none;align=left;verticalAlign=top;spacingLeft=4;spacingRight=4;overflow=hidden;rotatable=0;points=[[0,0.5],[1,0.5]];portConstraint=eastwest;whiteSpace=wrap;html=1;" vertex="1" parent="fQ-RKaf4CLcPT8I7lYW2-52">
          <mxGeometry y="60" width="160" height="26" as="geometry" />
        </mxCell>
        <mxCell id="fQ-RKaf4CLcPT8I7lYW2-66" value="" style="line;strokeWidth=1;fillColor=none;align=left;verticalAlign=middle;spacingTop=-1;spacingLeft=3;spacingRight=3;rotatable=0;labelPosition=right;points=[];portConstraint=eastwest;strokeColor=inherit;" vertex="1" parent="fQ-RKaf4CLcPT8I7lYW2-52">
          <mxGeometry y="86" width="160" height="8" as="geometry" />
        </mxCell>
        <mxCell id="fQ-RKaf4CLcPT8I7lYW2-64" value="propertyNo decimal" style="text;strokeColor=none;fillColor=none;align=left;verticalAlign=top;spacingLeft=4;spacingRight=4;overflow=hidden;rotatable=0;points=[[0,0.5],[1,0.5]];portConstraint=eastwest;whiteSpace=wrap;html=1;" vertex="1" parent="fQ-RKaf4CLcPT8I7lYW2-52">
          <mxGeometry y="94" width="160" height="22" as="geometry" />
        </mxCell>
        <mxCell id="fQ-RKaf4CLcPT8I7lYW2-67" value="" style="line;strokeWidth=1;fillColor=none;align=left;verticalAlign=middle;spacingTop=-1;spacingLeft=3;spacingRight=3;rotatable=0;labelPosition=right;points=[];portConstraint=eastwest;strokeColor=inherit;" vertex="1" parent="fQ-RKaf4CLcPT8I7lYW2-52">
          <mxGeometry y="116" width="160" height="8" as="geometry" />
        </mxCell>
        <mxCell id="fQ-RKaf4CLcPT8I7lYW2-69" value="city varchar(100)" style="text;strokeColor=none;fillColor=none;align=left;verticalAlign=top;spacingLeft=4;spacingRight=4;overflow=hidden;rotatable=0;points=[[0,0.5],[1,0.5]];portConstraint=eastwest;whiteSpace=wrap;html=1;" vertex="1" parent="fQ-RKaf4CLcPT8I7lYW2-52">
          <mxGeometry y="124" width="160" height="22" as="geometry" />
        </mxCell>
        <mxCell id="fQ-RKaf4CLcPT8I7lYW2-70" value="state varchar(100)" style="text;strokeColor=none;fillColor=none;align=left;verticalAlign=top;spacingLeft=4;spacingRight=4;overflow=hidden;rotatable=0;points=[[0,0.5],[1,0.5]];portConstraint=eastwest;whiteSpace=wrap;html=1;" vertex="1" parent="fQ-RKaf4CLcPT8I7lYW2-52">
          <mxGeometry y="146" width="160" height="22" as="geometry" />
        </mxCell>
        <mxCell id="fQ-RKaf4CLcPT8I7lYW2-71" value="country varchar(100)" style="text;strokeColor=none;fillColor=none;align=left;verticalAlign=top;spacingLeft=4;spacingRight=4;overflow=hidden;rotatable=0;points=[[0,0.5],[1,0.5]];portConstraint=eastwest;whiteSpace=wrap;html=1;" vertex="1" parent="fQ-RKaf4CLcPT8I7lYW2-52">
          <mxGeometry y="168" width="160" height="22" as="geometry" />
        </mxCell>
        <mxCell id="fQ-RKaf4CLcPT8I7lYW2-65" value="+ method(type): type" style="text;strokeColor=none;fillColor=none;align=left;verticalAlign=top;spacingLeft=4;spacingRight=4;overflow=hidden;rotatable=0;points=[[0,0.5],[1,0.5]];portConstraint=eastwest;whiteSpace=wrap;html=1;" vertex="1" parent="fQ-RKaf4CLcPT8I7lYW2-52">
          <mxGeometry y="190" width="160" height="26" as="geometry" />
        </mxCell>
        <mxCell id="fQ-RKaf4CLcPT8I7lYW2-55" value="+ method(type): type" style="text;strokeColor=none;fillColor=none;align=left;verticalAlign=top;spacingLeft=4;spacingRight=4;overflow=hidden;rotatable=0;points=[[0,0.5],[1,0.5]];portConstraint=eastwest;whiteSpace=wrap;html=1;" vertex="1" parent="fQ-RKaf4CLcPT8I7lYW2-52">
          <mxGeometry y="216" width="160" height="26" as="geometry" />
        </mxCell>
        <mxCell id="fQ-RKaf4CLcPT8I7lYW2-80" value="" style="endArrow=open;html=1;endSize=12;startArrow=diamondThin;startSize=14;startFill=0;edgeStyle=orthogonalEdgeStyle;rounded=0;entryX=1.018;entryY=0.058;entryDx=0;entryDy=0;entryPerimeter=0;exitX=-0.011;exitY=0.08;exitDx=0;exitDy=0;exitPerimeter=0;" edge="1" parent="1" source="fQ-RKaf4CLcPT8I7lYW2-42" target="fQ-RKaf4CLcPT8I7lYW2-52">
          <mxGeometry x="0.1706" y="96" relative="1" as="geometry">
            <mxPoint x="420" y="94" as="sourcePoint" />
            <mxPoint x="440" y="110" as="targetPoint" />
            <mxPoint as="offset" />
          </mxGeometry>
        </mxCell>
        <mxCell id="fQ-RKaf4CLcPT8I7lYW2-81" value="0..5" style="edgeLabel;resizable=0;html=1;align=left;verticalAlign=top;" connectable="0" vertex="1" parent="fQ-RKaf4CLcPT8I7lYW2-80">
          <mxGeometry x="-1" relative="1" as="geometry">
            <mxPoint x="-20" as="offset" />
          </mxGeometry>
        </mxCell>
        <mxCell id="fQ-RKaf4CLcPT8I7lYW2-82" value="1" style="edgeLabel;resizable=0;html=1;align=right;verticalAlign=top;" connectable="0" vertex="1" parent="fQ-RKaf4CLcPT8I7lYW2-80">
          <mxGeometry x="1" relative="1" as="geometry" />
        </mxCell>
      </root>
    </mxGraphModel>
  </diagram>
</mxfile>
